<?xml version="1.0"?>
<svg version="1.1" xmlns="http://www.w3.org/2000/svg" width="150" height="50" style=""><path fill="#" d="M20.61,42.25q-2.64,2.04-3.87,2.04q-0.66,0-0.975-0.645t-0.315-1.395q0-1.44,1.215-4.32t2.325-2.88q0.57,0,0.975,2.25t0.825,3.27q2.04-2.16,5.91-7.2q4.86-6.39,6.45-6.99q0.54-0.21,1.11-0.21t0.945,0.24t0.375,0.6q0,0.51-0.87,0.6q-1.05,0.57-3.24,2.76q-2.19,2.13-3.51,3.99q-3.21,4.47-6.6,7.29q1.68,2.49,5.28,2.49q0.39,0,1.17-0.06q8.34-0.78,11.82-7.23q1.41-2.58,1.41-5.1t-1.83-4.53q-1.47-1.65-3.195-2.04t-3.525-0.39q-4.62,0-8.52,2.13q-4.11,2.25-4.11,5.04q0,0.75,0.405,1.23t0.555,0.54l-0.18,0q-0.78-0.15-1.38-0.78q-0.66-0.78-0.66-1.65q0-3,3.765-5.16t8.835-2.16q2.34,0,4.8,0.54t4.47,2.58q2.31,2.4,2.31,5.43q0,2.25-1.32,4.65q-2.28,4.14-6.81,6.06q-3.63,1.53-7.83,1.53t-6.21-2.52z M16.53,42.13q0,0.93,0.36,1.62q1.29-0.57,3.12-2.37q-0.87-1.44-1.095-2.265t-0.315-2.175q-2.07,2.97-2.07,5.19z M20.82,33.73q0.03,0,0.06-0.03q0,0.06-0.015,0.06t-0.045-0.03z M45.9651,41.77q-1.2,0.84-1.71,0.84q-0.69,0-0.69-0.75q0-0.27,0.18-0.66t0.36-0.39q0.27,0,0.12,0.45q-0.09,0.45,0.27,0.45t0.87-0.36l-1.14-0.87q-0.06-0.06-0.06-0.21t0.3-0.435t0.465-0.285t1.455,1.02q3.72-4.2,5.46-5.52q-2.37-0.72-3.51-0.72q-0.33,0-0.63,0.045t-0.645,0.36t-0.345,0.705t0.33,0.645t0.33,0.405t-0.225,0.15t-0.735-0.6q-0.48-0.6-0.48-1.23q0-1.05,1.53-1.38q0.81-0.15,1.65-0.15t4.14,1.08q0.42-0.24,0.9-0.24q1.26,0,1.26,0.75q0,0.3-0.39,0.555t-0.93,0.255t-0.99-0.21q-2.85,1.77-6.12,5.58l1.08,0.84q1.29,0.84,3,0.84t2.52-0.54t0.81-1.38q0-0.39-0.15-0.735t0.27-0.345q0.15,0,0.3,0.345t0.15,0.825q0,1.2-1.14,1.98t-2.94,0.78q-1.98,0-3.27-0.75q-0.51-0.27-1.65-1.14z M59.2302,34.93q-0.18,0-0.18-0.12t0.81-1.155t0.81-1.485t-0.405-0.81t-0.405-0.54q0-0.9,0.87-0.9q0.45,0,0.855,0.285t0.405,0.705q0,1.29-1.14,2.655t-1.62,1.365z M67.6053,42.55q-0.87,0.51-2.145,0.51t-1.95-0.84t-1.155-2.67q-0.54,0.54-0.75,0.54q-0.15,0-0.15-0.21t0.15-0.36q0.99-1.23,3.36-3.54l3.78-3.54q1.62-1.53,1.92-1.53q0.96,0,0.96,0.72q0,0.36-0.285,0.705t-0.42,0.54t-0.285,0.375q-0.54,0.93-1.095,3.84t-0.855,4.05q2.49-0.03,5.13-3.24q0.3-0.3,0.45-0.3t0.15,0.195t-0.27,0.525q-1.74,2.04-3.24,2.85q-0.9,0.45-2.34,0.75z M63.5553,39.22q0,1.02,0.675,1.665t1.515,0.645t1.29-0.33q0.6-0.33,1.185-2.76t0.705-4.29l0.12-1.02q-1.65,1.23-3.525,3.18t-1.935,2.58q-0.03,0.18-0.03,0.33z M86.2755,33.52q0.81,0,0.81,0.63q0,0.18-0.09,0.36q-2.7,3.75-3.24,5.67q6.99-6.99,8.49-6.99q0.15-0.03,0.27-0.03q0.84,0,0.84,0.75q0,0.15-0.06,0.3t-1.2,1.62q-1.32,1.56-2.235,3t-0.915,2.4t0.42,0.96q1.32,0,4.59-3.63q0.06-0.06,0.21-0.27q0.45-0.54,0.54-0.54t0.09,0.3t-0.42,0.78q-3.72,4.23-5.28,4.23q-1.47,0-1.47-1.62t1.2-3.72l1.92-3.12q-2.04,1.5-3.63,3.285t-2.895,3.465t-1.515,1.68q-0.45,0-0.705-0.375t-0.255-0.93t0.39-1.485t0.99-2.25l-1.8,1.89q-0.66,0.66-0.825,0.66t-0.165-0.195t0.24-0.435q1.11-1.11,1.92-2.13q0.78-1.02,3.21-3.9q0.27-0.36,0.57-0.36z M102.6906,36.64q0,1.05-2.01,3.51q-2.37,2.91-4.05,2.91l-0.48,0q-0.78,0-1.23-0.81q-0.36-0.57-0.36-1.26q0-1.8,2.625-5.055t4.245-3.255q1.53,0,1.53,1.62q0,0.42-0.15,1.08q0.03,0.09,0.57,0.09t1.65-0.57q-0.03,0.51-2.37,1.47q0.03,0.12,0.03,0.27z M100.7406,35.08q-1.02,0-2.895,2.4t-1.875,3.54t0.72,1.14q1.29,0,3.27-2.34t1.98-3.36q-0.48-0.27-1.2-1.38z M112.4457,33.34l4.32-0.06q0.09,0.06,0.09,0.09q0,0.27-3.735,0.75t-4.035,0.57q-0.57,0.51-2.1,3.045t-1.53,3.705q0,1.11,1.53,1.11q0.72,0,1.89-0.45t1.8-0.84q1.68-1.05,3.6-3.09q0.42-0.42,0.57-0.42q0.09,0,0.09,0.18t-0.45,0.72q-1.56,1.92-3.51,3.09q-2.34,1.44-4.47,1.44q-0.93,0-1.515-0.405t-0.585-1.635t1.08-3.375t1.65-3.195q-0.42,0.09-0.72,0.09q-0.87,0-0.87-0.69q0-0.51,0.72-0.72q0.09,0,0.27-0.03l1.74,0q0.54-0.69,1.23-1.59q0.84-1.08,1.14-1.08t0.75,0.24t0.45,0.57t-1.44,1.95q0.78,0.03,2.04,0.03z M116.3808,43.39q-0.33,0-0.6-0.09q-1.92-0.54-1.92-2.16q0-2.1,2.64-4.86t4.74-2.76q0.69,0,1.125,0.375t0.435,0.915q0,1.68-2.535,3.21t-4.125,1.53q-0.24,0-0.42-0.06q-0.45,0.81-0.45,1.71q0,1.56,1.485,1.56t3.855-2.01q1.83-1.47,3.12-3.12q0.27-0.36,0.465-0.36t0.195,0.18t-0.24,0.51q-1.62,2.13-3.9,3.78t-3.87,1.65z M122.0508,34.75q0-0.36-0.765-0.36t-2.175,1.17q-1.89,1.56-2.94,3.27q0.18,0.06,0.39,0.06q1.14,0,3.045-1.215t2.385-2.655q0.06-0.15,0.06-0.27z M129.4059,42.55q-0.87,0.51-2.145,0.51t-1.95-0.84t-1.155-2.67q-0.54,0.54-0.75,0.54q-0.15,0-0.15-0.21t0.15-0.36q0.99-1.23,3.36-3.54l3.78-3.54q1.62-1.53,1.92-1.53q0.96,0,0.96,0.72q0,0.36-0.285,0.705t-0.42,0.54t-0.285,0.375q-0.54,0.93-1.095,3.84t-0.855,4.05q2.49-0.03,5.13-3.24q0.3-0.3,0.45-0.3t0.15,0.195t-0.27,0.525q-1.74,2.04-3.24,2.85q-0.9,0.45-2.34,0.75z M125.3559,39.22q0,1.02,0.675,1.665t1.515,0.645t1.29-0.33q0.6-0.33,1.185-2.76t0.705-4.29l0.12-1.02q-1.65,1.23-3.525,3.18t-1.935,2.58q-0.03,0.18-0.03,0.33z"/><path fill="#" d=""/></svg>
